<?xml version="1.0" encoding="UTF-8"?>
<svg version="1.1" xmlns="http://www.w3.org/2000/svg" width="200" height="200">
<path d="M0 0 C66 0 132 0 200 0 C200 66 200 132 200 200 C134 200 68 200 0 200 C0 134 0 68 0 0 Z " fill="#10D251" transform="translate(0,0)"/>
<path d="M0 0 C2.22488688 0.01843829 4.44936051 0.02050801 6.67431641 0.02026367 C17.53875282 0.05795063 17.53875282 0.05795063 19.83447266 1.20581055 C19.83447266 6.48581055 19.83447266 11.76581055 19.83447266 17.20581055 C17.94341797 17.18260742 16.05236328 17.1594043 14.10400391 17.13549805 C11.61833077 17.11673825 9.13265337 17.09853827 6.64697266 17.08081055 C5.40109375 17.06405273 4.15521484 17.04729492 2.87158203 17.0300293 C1.66953125 17.02358398 0.46748047 17.01713867 -0.77099609 17.01049805 C-1.87596436 17.00002441 -2.98093262 16.98955078 -4.11938477 16.97875977 C-7.20206899 17.20853426 -9.38393696 17.89762565 -12.16552734 19.20581055 C-11.83552734 20.85581055 -11.50552734 22.50581055 -11.16552734 24.20581055 C-10.23353516 24.4481543 -9.30154297 24.69049805 -8.34130859 24.94018555 C-1.89186157 26.63569235 4.55234017 28.35632901 10.95947266 30.20581055 C11.97267578 30.49456055 12.98587891 30.78331055 14.02978516 31.08081055 C17.82681251 32.60385216 20.77725812 34.52076212 22.97900391 38.0300293 C25.78373933 45.85376494 25.58877963 53.02622939 22.92041016 60.90893555 C20.64431696 65.72311829 17.37645347 68.26358641 12.41259766 70.10351562 C4.19110655 72.32363756 -3.5580478 72.60699689 -12.00512695 72.48706055 C-14.25602544 72.45541694 -16.50622346 72.44602687 -18.75732422 72.44018555 C-29.67060778 72.37078373 -29.67060778 72.37078373 -33.16552734 71.20581055 C-33.16552734 65.92581055 -33.16552734 60.64581055 -33.16552734 55.20581055 C-31.22548828 55.22901367 -29.28544922 55.2522168 -27.28662109 55.27612305 C-24.72542703 55.29488637 -22.1642288 55.31308597 -19.60302734 55.33081055 C-17.68780273 55.35594727 -17.68780273 55.35594727 -15.73388672 55.3815918 C-9.51030475 55.41392209 -4.01598806 55.44042261 1.83447266 53.20581055 C1.50447266 51.55581055 1.17447266 49.90581055 0.83447266 48.20581055 C0.14933594 48.01994385 -0.53580078 47.83407715 -1.24169922 47.64257812 C-4.38680738 46.78117738 -7.52602833 45.89992568 -10.66552734 45.01831055 C-11.74318359 44.72633789 -12.82083984 44.43436523 -13.93115234 44.13354492 C-28.51874724 39.99742808 -28.51874724 39.99742808 -33.13427734 33.38549805 C-34.34422979 29.65481132 -34.70187138 26.21916256 -34.66552734 22.33081055 C-34.65980713 21.62408203 -34.65408691 20.91735352 -34.64819336 20.18920898 C-34.44850638 14.36130753 -33.41864457 10.26560426 -29.16552734 6.20581055 C-20.74839411 -0.53606802 -10.21340592 -0.08786953 0 0 Z " fill="#010501" transform="translate(90.16552734375,63.794189453125)"/>
<path d="M0 0 C0.33 0 0.66 0 1 0 C1.08071788 2.79224073 1.14035408 5.58216566 1.1875 8.375 C1.21263672 9.1690625 1.23777344 9.963125 1.26367188 10.78125 C1.29004405 12.85586148 1.15486462 14.93100865 1 17 C0.01 17.66 -0.98 18.32 -2 19 C-1.46375 18.855625 -0.9275 18.71125 -0.375 18.5625 C2.39915827 17.90546252 5.18525388 17.44780052 8 17 C8 17.99 8 18.98 8 20 C8.66 19.67 9.32 19.34 10 19 C11.99960012 18.960008 14.00047242 18.95653201 16 19 C15.95875 18.05125 15.9175 17.1025 15.875 16.125 C16 13 16 13 18 11 C21.125 10.875 21.125 10.875 24 11 C24 14.3 24 17.6 24 21 C27.3 21 30.6 21 34 21 C34 23.64 34 26.28 34 29 C31.36 29 28.72 29 26 29 C26 31.97 26 34.94 26 38 C22.7 38 19.4 38 16 38 C16 35.03 16 32.06 16 29 C15.00419922 29.01740234 15.00419922 29.01740234 13.98828125 29.03515625 C5.21792619 29.12478032 5.21792619 29.12478032 1 28 C1 28.66 1 29.32 1 30 C1.99 30 2.98 30 4 30 C5.50974035 37.09038772 6.28307925 43.75002578 6 51 C5.67 51 5.34 51 5 51 C4.90203125 50.13117188 4.8040625 49.26234375 4.703125 48.3671875 C3.77153134 39.35615022 3.77153134 39.35615022 -1 32 C-7.38144027 28.28740224 -14.86432573 26.95764067 -22.0222168 25.48193359 C-26.20592209 24.58580346 -29.47612028 23.44386943 -33 21 C-32.8125 18.625 -32.8125 18.625 -32 16 C-28.48265203 14.17405009 -25.54869426 13.75183467 -21.62109375 13.76953125 C-20.61755859 13.77146484 -19.61402344 13.77339844 -18.58007812 13.77539062 C-17.54302734 13.78763672 -16.50597656 13.79988281 -15.4375 13.8125 C-14.39658203 13.81314453 -13.35566406 13.81378906 -12.28320312 13.81445312 C-7.92264443 13.83969109 -4.25758696 13.93560326 0 15 C0 10.05 0 5.1 0 0 Z " fill="#17C852" transform="translate(110,66)"/>
<path d="M0 0 C1.98 0 3.96 0 6 0 C6 3.3 6 6.6 6 10 C9.3 10 12.6 10 16 10 C16 12.31 16 14.62 16 17 C12.7 17 9.4 17 6 17 C6 19.97 6 22.94 6 26 C4.02 26 2.04 26 0 26 C0 23.03 0 20.06 0 17 C-3.3 17 -6.6 17 -10 17 C-10 14.69 -10 12.38 -10 10 C-6.7 10 -3.4 10 0 10 C0 6.7 0 3.4 0 0 Z " fill="#010501" transform="translate(128,77)"/>
<path d="M0 0 C1.98 0 3.96 0 6 0 C6 3.3 6 6.6 6 10 C9.3 10 12.6 10 16 10 C16 12.31 16 14.62 16 17 C12.7 17 9.4 17 6 17 C6 16.67 6 16.34 6 16 C8.97 16 11.94 16 15 16 C15 14.68 15 13.36 15 12 C13.0509375 12.185625 13.0509375 12.185625 11.0625 12.375 C10.33160156 12.44460937 9.60070312 12.51421875 8.84765625 12.5859375 C8.23792969 12.72257812 7.62820312 12.85921875 7 13 C6.67 13.66 6.34 14.32 6 15 C5.34 15 4.68 15 4 15 C3.34 13.35 2.68 11.7 2 10 C1.01 10.66 0.02 11.32 -1 12 C-3.04296875 12.1953125 -3.04296875 12.1953125 -5.1875 12.125 C-7.0746875 12.063125 -7.0746875 12.063125 -9 12 C-9 13.32 -9 14.64 -9 16 C-6.03 16 -3.06 16 0 16 C0 16.33 0 16.66 0 17 C-3.3 17 -6.6 17 -10 17 C-10 14.69 -10 12.38 -10 10 C-6.7 10 -3.4 10 0 10 C0 6.7 0 3.4 0 0 Z " fill="#001B04" transform="translate(128,77)"/>
<path d="M0 0 C2.31 0 4.62 0 7 0 C5 2 5 2 1.625 3.6875 C-2.37336211 6.01639985 -4.79119035 8.47415912 -6 13 C-6.24631693 15.72348149 -6.40562033 18.33756165 -6.4375 21.0625 C-6.44773193 21.74731445 -6.45796387 22.43212891 -6.46850586 23.13769531 C-6.3879875 27.80212952 -5.58785401 31.11254387 -3 35 C-0.70394791 36.68704172 -0.70394791 36.68704172 1.9375 37.75 C2.79214844 38.13671875 3.64679688 38.5234375 4.52734375 38.921875 C5.75130859 39.45554687 5.75130859 39.45554687 7 40 C8.33736808 40.65853538 9.67225788 41.32226621 11 42 C4.20655877 41.41435851 -0.40925577 40.34015141 -5.625 35.62890625 C-9.29675927 31.10280299 -8.78159703 25.70126942 -8.8125 20.125 C-8.83763672 19.05507812 -8.86277344 17.98515625 -8.88867188 16.8828125 C-8.94733201 14.25483835 -8.9837667 11.62852175 -9 9 C-8.01 8.67 -7.02 8.34 -6 8 C-5.67 6.02 -5.34 4.04 -5 2 C-3.35 2.33 -1.7 2.66 0 3 C0 2.01 0 1.02 0 0 Z " fill="#22B756" transform="translate(63,65)"/>
<path d="M0 0 C1.98 0 3.96 0 6 0 C4.02 0.99 4.02 0.99 2 2 C2.185625 3.2375 2.37125 4.475 2.5625 5.75 C3.06407468 9.09383119 2.86959082 10.5216367 2 14 C9.425 14.99 9.425 14.99 17 16 C17 16.33 17 16.66 17 17 C14.72923158 17.02699725 12.45837179 17.04639453 10.1875 17.0625 C8.29064453 17.07990234 8.29064453 17.07990234 6.35546875 17.09765625 C3 17 3 17 0 16 C0 10.72 0 5.44 0 0 Z " fill="#022C07" transform="translate(57,119)"/>
<path d="M0 0 C1.02158203 0.00644531 2.04316406 0.01289062 3.09570312 0.01953125 C4.15080078 0.03628906 5.20589844 0.05304688 6.29296875 0.0703125 C7.36740234 0.07933594 8.44183594 0.08835937 9.54882812 0.09765625 C12.19293729 0.12115944 14.83658747 0.15401675 17.48046875 0.1953125 C17.48046875 0.5253125 17.48046875 0.8553125 17.48046875 1.1953125 C15.54880859 1.28619141 15.54880859 1.28619141 13.578125 1.37890625 C11.89972716 1.46329497 10.22134239 1.5479438 8.54296875 1.6328125 C7.26776367 1.69178711 7.26776367 1.69178711 5.96679688 1.75195312 C5.15791016 1.79384766 4.34902344 1.83574219 3.515625 1.87890625 C2.39232788 1.93389282 2.39232788 1.93389282 1.24633789 1.98999023 C-0.54414451 2.01302313 -0.54414451 2.01302313 -1.51953125 3.1953125 C-3.54778616 3.38847963 -5.57677046 3.57857038 -7.609375 3.71875 C-9.92057735 4.06776711 -9.92057735 4.06776711 -11.51953125 7.1953125 C-11.33203125 4.8203125 -11.33203125 4.8203125 -10.51953125 2.1953125 C-6.95041383 0.3315498 -3.98788632 -0.04455739 0 0 Z " fill="#179C43" transform="translate(88.51953125,79.8046875)"/>
<path d="M0 0 C1.50974035 7.09038772 2.28307925 13.75002578 2 21 C1.67 21 1.34 21 1 21 C0.85304688 19.71416016 0.85304688 19.71416016 0.703125 18.40234375 C-0.17641379 11.67690491 -1.09910991 6.5912758 -5 1 C-1.125 0 -1.125 0 0 0 Z " fill="#22C25B" transform="translate(114,96)"/>
<path d="M0 0 C11.52164009 1.92710706 11.52164009 1.92710706 17 4 C11.82212316 5.72595895 7.33690763 4.59683376 2.5 2.4375 C1.675 1.963125 0.85 1.48875 0 1 C0 0.67 0 0.34 0 0 Z " fill="#25B757" transform="translate(74,107)"/>
<path d="M0 0 C0.66 0.33 1.32 0.66 2 1 C-2.74144487 7.04942966 -2.74144487 7.04942966 -5 9 C-5.66 9 -6.32 9 -7 9 C-5.64978174 4.58110387 -3.73884332 2.65654657 0 0 Z " fill="#002005" transform="translate(65,67)"/>
</svg>
